PathFileType	4	(X/Y/Z)	/Users/rkoike/Documents/python/sports2d/webcam_20250606_145141/webcam_20250606_145141_px_person01.trc
DataRate	CameraRate	NumFrames	NumMarkers	Units	OrigDataRate	OrigDataStartFrame	OrigNumFrames
30	30	4	22	m	30	1006	4026
Frame#	Time	Hip			RHip			RKnee			RAnkle			RBigToe			RSmallToe			RHeel			LHip			LKnee			LAnkle			LBigToe			LSmallToe			LHeel			Neck			Head			Nose			RShoulder			RElbow			RWrist			LShoulder			LElbow			LWrist			
		X1	Y1	Z1	X2	Y2	Z2	X3	Y3	Z3	X4	Y4	Z4	X5	Y5	Z5	X6	Y6	Z6	X7	Y7	Z7	X8	Y8	Z8	X9	Y9	Z9	X10	Y10	Z10	X11	Y11	Z11	X12	Y12	Z12	X13	Y13	Z13	X14	Y14	Z14	X15	Y15	Z15	X16	Y16	Z16	X17	Y17	Z17	X18	Y18	Z18	X19	Y19	Z19	X20	Y20	Z20	X21	Y21	Z21	X22	Y22	Z22
1006	33.541664596273286	553.8287983840723	756.4640668392318	0.0	420.16367266892297	759.842035487598	0.0	128.4549178834047	707.0066841887558	0.0	189.70992653011282	659.4988240402178	0.0	1135.5714668227663	293.9095748762961	0.0	1249.8014322916667	114.45313072204588	0.0			0.0	692.1350149034106	751.6387582901726	0.0	716.8056370675791	765.5764888493919	0.0	1033.7695312500002	234.10156536102295	0.0	1210.2476546499465	390.76007607248084	0.0	1249.801432291667	144.36523938179016	0.0	1173.6548700871806	503.36829283057574	0.0	589.2167238903926	374.4095692837862	0.0	560.8733776465236	93.95266363595358	0.0	539.3086044230668	251.0906996845554	0.0	400.8945904157988	469.5015860068921	0.0	179.34218480982025	671.0333101124145	0.0	71.5849958403286	470.8605998531667	0.0	807.1423398252484	481.29702496105136	0.0	868.2254590960589	705.8134948354616	0.0	758.0661228956897	714.7696282566301	0.0
1007	33.575006211180124	552.0801031154285	755.7570265678627	0.0	416.849244031999	763.0157790219994	0.0	128.84673502841278	706.8744038476697	0.0	189.717640066328	659.5004480204392	0.0	1135.5714668227663	293.9095748762961	0.0	1249.8014322916667	114.45313072204588	0.0			0.0	697.3215411407826	754.2558229878455	0.0	716.7696811483193	765.5795813502533	0.0	1033.7695312500002	234.10156536102298	0.0	1210.2476546499465	390.76007607248084	0.0	1249.801432291667	144.36523938179016	0.0	1173.6548700871806	503.36829283057574	0.0	587.5048058135026	376.72353937065196	0.0	564.5761655470876	91.6910566641472	0.0	547.2541584256293	251.94073587817675	0.0	400.6707716359496	470.09746362642915	0.0	176.8219745837096	674.7029908258951	0.0	93.66145902743183	458.49724799706996	0.0	805.619408586619	481.5993500456688	0.0	869.988442888192	707.4193323071518	0.0	757.5190883478868	715.8331012586083	0.0
1008	33.608347826086955	558.3882686315707	740.3135184011786	0.0	419.2555536769799	752.8025999178103	0.0	128.46748733542208	707.3290533267148	0.0	189.72241618634473	659.5014535676004	0.0	1135.5714668227663	293.9095748762961	0.0	1249.8014322916667	114.45313072204588	0.0			0.0	703.1275810889406	744.5001275069807	0.0	716.3343993950438	765.4945237801783	0.0	1033.7695312500002	234.10156536102298	0.0	1210.2476546499465	390.76007607248084	0.0	1249.801432291667	144.36523938179016	0.0	1173.6548700871806	503.36829283057574	0.0	584.9787983841279	381.3833931394216	0.0	566.28456438238	94.41719388895683	0.0	543.6382711725286	251.44009692427804	0.0	398.26021868294663	471.15353557551543	0.0	184.38812423250712	683.5696185481802	0.0	120.5752216090541	455.70183633381083	0.0	808.2236955774771	485.5585017903889	0.0	875.8580901866675	713.9101391732672	0.0	732.712139772115	718.4189490465525	0.0
1009	33.64168944099379	567.2416765506952	739.1181371435287	0.0	431.39886438593487	744.4831519046768	0.0	125.49387020951285	708.8569818709045	0.0	189.69203747448933	659.4950577426713	0.0	1135.5714668227663	293.9095748762961	0.0	1249.8014322916667	114.4531307220459	0.0			0.0	706.3250576160134	737.403373883768	0.0	715.6967613990823	765.3182942921394	0.0	1033.7695312500002	234.10156536102298	0.0	1210.2476546499465	390.76007607248084	0.0	1249.801432291667	144.36523938179016	0.0	1173.6548700871806	503.36829283057574	0.0	584.4815908824072	381.3904167293749	0.0	565.8345150839903	95.37030991446032	0.0	532.7307174824473	250.65355753566422	0.0	398.4720439631639	471.888168323987	0.0	215.55112853987586	697.1829334031585	0.0	150.17948515968936	472.2410100249521	0.0	812.6621618763248	487.04005709777067	0.0	880.6210599373071	721.9880204611807	0.0	707.7214106818986	723.8580004805259	0.0
